<svg width="626" height="533" viewBox="0 0 626 533" fill="none" xmlns="http://www.w3.org/2000/svg">
<g opacity="0.2">
<path d="M305.019 170.397L-193.472 399.648C-212.467 408.383 -213.689 434.827 -195.589 445.276L353.682 762.398C371.781 772.848 394.071 758.568 392.139 737.75L341.359 191.378C339.747 173.761 321.153 163.026 305.019 170.397Z" fill="#35455A"/>
<path opacity="0.8" d="M612.733 365.307L388.882 753.027C381.78 765.329 366.056 769.543 353.754 762.44L-195.658 445.237C-217.434 432.664 -210.148 399.635 -185.137 397.296L588.197 326.82C608.974 324.958 623.253 347.248 612.804 365.347L612.733 365.307Z" fill="#EFDC93"/>
<path opacity="0.8" d="M18.7095 22.3458L-205.141 410.066C-212.244 422.368 -208.03 438.093 -195.728 445.195L353.755 762.439C375.46 774.971 400.421 752.146 389.9 729.387L64.2673 24.422C55.562 5.53874 29.1183 4.3172 18.7095 22.3458Z" fill="#48BFAC"/>
</g>
</svg>
