<svg width="65" height="48" viewBox="0 0 65 48" fill="none" xmlns="http://www.w3.org/2000/svg">
<path d="M30.3728 1.53971L0.462 43.7798C-0.67775 45.3893 0.469701 47.6072 2.44116 47.6072H62.2704C64.2418 47.6072 65.3893 45.3893 64.2495 43.7798L34.3311 1.53971C33.3685 0.176633 31.3431 0.176633 30.3728 1.53971Z" fill="#35455A"/>
<path opacity="0.8" d="M64.7042 2.94935V45.1817C64.7042 46.5217 63.6184 47.6076 62.2784 47.6076H2.43377C0.0618535 47.6076 -0.900774 44.5657 1.03218 43.1949L60.8845 0.962491C62.494 -0.169559 64.7119 0.977894 64.7119 2.94935H64.7042Z" fill="#EFDC93"/>
<path opacity="0.8" d="M0 2.94923V45.1816C0 46.5216 1.08584 47.6074 2.42582 47.6074H62.2781C64.6424 47.6074 65.605 44.5655 63.672 43.2025L3.81971 0.97007C2.21789 -0.161979 0 0.985467 0 2.94923Z" fill="#48BFAC"/>
</svg>
