<svg width="127" height="48" viewBox="0 0 127 48" fill="none" xmlns="http://www.w3.org/2000/svg">
<path d="M69.0922 0.567409C71.3554 0.0234085 73.7068 -0.0902466 76.0219 0.098443C78.0357 0.26396 80.0351 0.677753 81.9264 1.3972C81.9275 3.04024 81.9286 4.68437 81.9264 6.32741C80.2348 5.16327 78.2861 4.36106 76.2459 4.09293C73.8359 3.77624 71.3113 4.0521 69.101 5.09706C67.4006 5.89155 65.9242 7.16493 64.9068 8.74506C63.7261 10.5591 63.1667 12.7362 63.1678 14.8913C63.1579 17.0066 63.6577 19.1495 64.7568 20.968C65.7598 22.6507 67.2759 24.0113 69.0315 24.8731C70.9857 25.8441 73.1915 26.2215 75.3609 26.2071C78.0644 26.1773 80.7336 25.5848 83.2781 24.6987C82.3855 26.2358 81.5016 27.7773 80.6023 29.31C79.5695 29.6764 78.4517 29.8154 77.3637 29.9666C73.1386 30.4543 68.6608 30.0935 64.8594 28.051C61.8381 26.4543 59.4459 23.7067 58.3325 20.4714C56.6685 15.6582 57.3868 9.97431 60.5427 5.92024C62.6381 3.18699 65.762 1.35086 69.0922 0.567409Z" fill="#1D3C34"/>
<path d="M85.6925 0.705329C91.3808 0.703123 97.068 0.703123 102.756 0.705329C102.754 2.06588 102.756 3.42533 102.754 4.78588C98.8555 4.78809 94.9582 4.78588 91.0597 4.78698C91.0575 8.6965 91.0608 12.6049 91.0575 16.5144C91.9468 15.2697 92.8307 14.0217 93.7168 12.7748C96.2006 12.7693 98.6845 12.7737 101.168 12.7726C101.169 14.1431 101.168 15.5125 101.169 16.8819C97.7984 16.8841 94.4285 16.8808 91.0586 16.8841C91.0586 21.0628 91.0597 25.2416 91.0575 29.4204C89.2688 29.4204 87.4812 29.4226 85.6925 29.4193C85.6925 19.8479 85.6925 10.2766 85.6925 0.705329Z" fill="#1D3C34"/>
<path d="M1.01721 0.746191C2.68783 0.743984 4.35845 0.745088 6.02907 0.745088C11.2351 6.67171 16.4456 12.5961 21.6528 18.5227C21.5877 12.5972 21.5391 6.67171 21.4873 0.746191C23.2241 0.743984 24.962 0.745088 26.6989 0.745088C26.7 10.3043 26.7022 19.8634 26.6978 29.4215C26.0633 29.4149 25.4288 29.4314 24.7954 29.4127C18.5852 22.515 12.3662 15.6262 6.14825 8.73516C6.20783 15.6306 6.25528 22.5249 6.31487 29.4193C4.54935 29.4226 2.78383 29.4204 1.01832 29.4204C1.01721 19.8623 1.01721 10.3043 1.01721 0.746191Z" fill="#1D3C34"/>
<path d="M29.7665 29.4204C33.6219 19.8601 37.4785 10.3009 41.3428 0.745056C43.0774 0.745056 44.8131 0.745056 46.5477 0.745056C50.273 10.3031 53.9982 19.8612 57.7168 29.4215C55.7759 29.4204 53.8349 29.4215 51.8939 29.4204C51.0123 27.038 50.1383 24.6535 49.2501 22.2744C45.4542 22.2788 41.6583 22.2744 37.8636 22.2766C36.9543 24.6568 36.0506 27.0391 35.1436 29.4193C33.3505 29.4215 31.5585 29.4215 29.7665 29.4204ZM43.1359 8.27609C41.8128 11.7608 40.4887 15.2455 39.1679 18.7313C42.1097 18.7313 45.0503 18.7313 47.9921 18.7313C46.7199 15.1892 45.4432 11.6493 44.1698 8.10837C43.9833 7.58423 43.8465 7.04464 43.7019 6.50837C43.5143 7.09761 43.3643 7.70009 43.1359 8.27609Z" fill="#1D3C34"/>
<path d="M105.983 29.4203C105.983 19.8612 105.981 10.3031 105.984 0.745037C108.649 0.745037 111.312 0.745037 113.977 0.745037C115.521 0.756071 117.08 0.672209 118.605 0.971244C120.405 1.30117 122.216 2.05373 123.432 3.46724C124.474 4.65786 124.936 6.26559 124.923 7.82917C124.947 9.31221 124.493 10.8306 123.511 11.9616C122.555 13.0882 121.206 13.8088 119.809 14.2325C121.609 14.5415 123.373 15.3779 124.545 16.8101C125.491 17.9368 125.966 19.3988 126.024 20.8576C126.08 22.8063 125.377 24.7616 124.117 26.2479C123.113 27.4408 121.75 28.3092 120.271 28.7936C118.887 29.2548 117.42 29.4303 115.966 29.4214C112.638 29.4192 109.311 29.4226 105.983 29.4203ZM111.156 15.6747C111.884 14.6529 112.606 13.6267 113.338 12.6082C115.095 12.6501 117.011 12.4471 118.399 11.2576C119.853 10.0835 120.217 7.75304 119.125 6.22586C118.259 5.09924 116.75 4.80021 115.411 4.71966C113.993 4.68324 112.575 4.71304 111.157 4.70311C111.154 8.36104 111.156 12.0179 111.156 15.6747ZM111.157 25.5175C112.503 25.5119 113.85 25.5362 115.197 25.4866C116.18 25.4446 117.177 25.2736 118.063 24.83C119.066 24.3379 119.892 23.4827 120.313 22.4455C120.852 21.1544 120.744 19.5886 119.947 18.4267C119.263 17.4137 118.116 16.8123 116.957 16.5221C115.058 16.0708 113.09 16.2231 111.157 16.1933C111.155 19.3017 111.155 22.409 111.157 25.5175Z" fill="#1D3C34"/>
<path d="M0.879272 37.1037C42.5962 37.1037 84.3132 37.1026 126.03 37.1048C123.447 40.7362 120.872 44.3743 118.28 48.0002H0.879272V37.1037ZM39.0354 40.6877C38.423 41.374 38.2884 42.3649 38.4462 43.2455C38.5653 43.9329 38.978 44.5895 39.618 44.8995C40.4876 45.3188 41.6131 45.2195 42.3436 44.5674C42.3391 43.827 42.3436 43.0866 42.3413 42.345C41.7576 42.3439 41.1739 42.3439 40.5902 42.345C40.5891 42.5889 40.5891 42.8317 40.5902 43.0755C40.9069 43.0755 41.2236 43.0766 41.5413 43.0777C41.5413 43.4364 41.5391 43.795 41.5447 44.1547C40.8749 44.5862 39.831 44.3456 39.511 43.5853C39.2164 42.889 39.2197 42.0328 39.6125 41.3751C40.0605 40.617 41.2103 40.5453 41.7962 41.182C41.9584 40.9867 42.1196 40.7914 42.2807 40.595C41.4277 39.6979 39.8442 39.774 39.0354 40.6877ZM87.2572 40.3655C86.7011 40.8035 86.615 41.7028 87.0906 42.2303C87.6169 42.8096 88.4699 42.8703 89.0757 43.3326C89.3836 43.5975 89.2511 44.1481 88.876 44.2783C88.2437 44.521 87.5574 44.2242 87.0818 43.7994C86.903 44.0035 86.7253 44.2099 86.5499 44.4162C87.319 45.1566 88.6012 45.4159 89.5314 44.8311C90.2431 44.4063 90.3943 43.3006 89.804 42.7147C89.2644 42.1884 88.4467 42.1387 87.8586 41.694C87.5783 41.4744 87.6611 40.9966 87.9789 40.8565C88.5096 40.5906 89.1231 40.8322 89.5579 41.1732C89.7113 40.9812 89.8647 40.7881 90.0191 40.5961C89.3041 39.8965 88.0594 39.7133 87.2572 40.3655ZM102.685 40.3522C102.107 40.7925 102.019 41.726 102.523 42.2546C103.045 42.7975 103.85 42.8791 104.451 43.2995C104.794 43.5467 104.687 44.126 104.301 44.2706C103.669 44.5277 102.973 44.2242 102.493 43.7994C102.316 44.0035 102.139 44.2077 101.965 44.4118C102.73 45.1666 104.03 45.4159 104.958 44.8212C105.623 44.4085 105.794 43.3977 105.291 42.7964C104.906 42.3484 104.301 42.217 103.786 41.9798C103.505 41.8573 103.129 41.7161 103.099 41.363C103.063 41.0198 103.396 40.7793 103.707 40.7583C104.173 40.6799 104.608 40.9062 104.97 41.1732C105.122 40.9823 105.275 40.7903 105.429 40.5994C104.724 39.8965 103.487 39.7166 102.685 40.3522ZM106.756 40.3235C106.165 40.7439 106.042 41.6742 106.529 42.2193C107.05 42.8052 107.898 42.8703 108.511 43.3205C108.833 43.5864 108.699 44.1547 108.311 44.2827C107.68 44.5177 107.001 44.2187 106.525 43.7994C106.347 44.0046 106.17 44.211 105.996 44.4195C106.841 45.2361 108.379 45.4755 109.259 44.5928C109.75 44.0675 109.744 43.1285 109.185 42.654C108.653 42.1983 107.913 42.1166 107.342 41.7271C107.037 41.5296 107.08 41.0165 107.409 40.8675C107.939 40.5839 108.568 40.8267 109.003 41.1754C109.156 40.9812 109.311 40.7881 109.465 40.595C108.762 39.9142 107.563 39.7188 106.756 40.3235ZM14.0655 40.0554C14.0655 41.7249 14.0655 43.3933 14.0666 45.0628C14.3645 45.0628 14.6624 45.0628 14.9615 45.0628C14.9637 44.3224 14.9615 43.582 14.9626 42.8416C15.6335 42.8416 16.3044 42.8416 16.9753 42.8416C16.9764 43.582 16.9742 44.3213 16.9764 45.0617C17.2743 45.0628 17.5733 45.0628 17.8724 45.0628C17.8724 43.3933 17.8724 41.7249 17.8724 40.0554C17.5733 40.0543 17.2743 40.0554 16.9753 40.0554C16.9753 40.7219 16.9764 41.3884 16.9753 42.0548C16.3044 42.0548 15.6335 42.0559 14.9626 42.0548C14.956 41.3862 14.9747 40.7164 14.9527 40.0488C14.6569 40.0554 14.3612 40.0565 14.0655 40.0554ZM19.127 40.0565C19.1292 41.7249 19.1259 43.3944 19.1292 45.0628C20.1576 45.0617 21.1871 45.0628 22.2167 45.0617C22.2178 44.8046 22.2178 44.5475 22.2178 44.2904C21.4862 44.2882 20.7557 44.2904 20.0241 44.2893C20.023 43.8071 20.023 43.3238 20.0241 42.8416C20.6222 42.8416 21.2191 42.8427 21.8172 42.8416C21.8172 42.5878 21.8172 42.3351 21.8172 42.0835C21.2191 42.0824 20.6222 42.0835 20.0252 42.0824C20.023 41.6598 20.023 41.2372 20.0252 40.8146C20.7325 40.8135 21.4409 40.8146 22.1482 40.8135C22.1482 40.5608 22.1482 40.3081 22.1493 40.0565C21.1419 40.0554 20.1344 40.0543 19.127 40.0565ZM23.2241 40.0554C23.2241 41.7249 23.2241 43.3933 23.2252 45.0628C24.2172 45.0628 25.2103 45.0628 26.2023 45.0628C26.2034 44.8046 26.2034 44.5475 26.2034 44.2904C25.5093 44.2882 24.8153 44.2904 24.1212 44.2893C24.1201 42.878 24.1201 41.4678 24.1212 40.0565C23.8222 40.0554 23.5231 40.0543 23.2241 40.0554ZM27.0575 40.0565C27.0597 41.7249 27.0564 43.3944 27.0597 45.0628C27.3576 45.0628 27.6567 45.0628 27.9546 45.0617C27.9568 44.4504 27.9535 43.8391 27.9568 43.2278C28.6089 43.2267 29.3184 43.2885 29.8967 42.9255C30.8456 42.3583 30.8191 40.6535 29.7455 40.2364C28.8859 39.9252 27.9513 40.1017 27.0575 40.0565ZM31.5 40.0554C31.5 41.7249 31.5 43.3933 31.5011 45.0628C31.799 45.0628 32.0969 45.0628 32.396 45.0628C32.3982 43.3944 32.3949 41.7249 32.3971 40.0565C32.098 40.0554 31.799 40.0543 31.5 40.0554ZM33.6517 40.0554C33.6517 41.7249 33.6517 43.3933 33.6517 45.0628C33.9364 45.0628 34.2222 45.0628 34.5069 45.0617C34.5047 43.763 34.5455 42.462 34.3921 41.1699C35.0144 42.505 35.7736 43.7707 36.4787 45.0628C36.7822 45.0628 37.0856 45.0617 37.3891 45.0617C37.3902 43.3933 37.3891 41.7249 37.3902 40.0565C37.1044 40.0543 36.8186 40.0543 36.5339 40.0554C36.5383 41.3542 36.4942 42.6562 36.6487 43.9495C36.0318 42.611 35.2682 41.3486 34.5653 40.0554C34.2608 40.0554 33.9562 40.0554 33.6517 40.0554ZM45.4167 40.0554C45.4167 41.7249 45.4167 43.3933 45.4178 45.0617C45.7157 45.0628 46.0136 45.0628 46.3127 45.0628C46.316 44.3688 46.3127 43.6747 46.3138 42.9806C46.9207 42.9773 47.5275 42.9806 48.1344 42.9784C48.1344 42.7213 48.1344 42.4642 48.1344 42.2082C47.5275 42.206 46.9207 42.2082 46.3138 42.206C46.3138 41.7426 46.3138 41.278 46.3149 40.8146C47.0266 40.8135 47.7394 40.8146 48.4511 40.8135C48.4522 40.5608 48.4522 40.3081 48.4522 40.0554C47.4404 40.0554 46.4285 40.0554 45.4167 40.0554ZM49.2787 40.0554C49.282 41.0132 49.2721 41.9699 49.2842 42.9266C49.2953 43.5268 49.3946 44.1779 49.815 44.638C50.1571 45.022 50.6933 45.1544 51.191 45.1489C51.6655 45.15 52.1742 45.0297 52.5151 44.6788C52.9367 44.2496 53.0558 43.6217 53.0713 43.0413C53.0746 42.046 53.0713 41.0507 53.0724 40.0554C52.7866 40.0543 52.5019 40.0554 52.2161 40.0565C52.2139 41.0452 52.2216 42.035 52.2139 43.0248C52.2018 43.4805 52.1047 44.0399 51.6544 44.2673C51.276 44.4295 50.7607 44.4063 50.4793 44.0742C50.2476 43.7839 50.1946 43.3966 50.1891 43.0369C50.1891 42.0427 50.1902 41.0496 50.1902 40.0554C49.8856 40.0554 49.5822 40.0543 49.2787 40.0554ZM54.2994 40.0554C54.3005 41.7249 54.2994 43.3933 54.3005 45.0628C54.5896 45.0628 54.8787 45.0628 55.1689 45.0628C55.17 43.763 55.2009 42.4598 55.0531 41.1666C55.6677 42.5062 56.4346 43.7674 57.1364 45.0628C57.4409 45.0628 57.7466 45.0628 58.0511 45.0617C58.0522 43.3933 58.0522 41.7249 58.0522 40.0554C57.7664 40.0543 57.4807 40.0554 57.196 40.0565C57.2048 41.353 57.1496 42.654 57.3085 43.945C56.6884 42.611 55.927 41.3508 55.2296 40.0587C54.9184 40.0543 54.6095 40.0543 54.2994 40.0554ZM59.3069 40.0554C59.3069 41.7249 59.3069 43.3933 59.308 45.0628C60.1984 45.0231 61.1618 45.2052 61.9838 44.7671C62.6922 44.3986 63.0398 43.5875 63.0707 42.8206C63.1325 41.9842 62.9626 41.0088 62.2288 40.4968C61.3813 39.881 60.2834 40.0929 59.3069 40.0554ZM65.8856 40.0554C65.8867 41.0496 65.8845 42.0438 65.8856 43.038C65.8944 43.6173 66.0258 44.2397 66.4396 44.6722C66.8026 45.0507 67.3532 45.1644 67.8597 45.1478C68.3287 45.139 68.8252 44.9977 69.1463 44.638C69.5413 44.2088 69.6506 43.6008 69.6649 43.0369C69.6671 42.0427 69.6649 41.0496 69.666 40.0554C69.3802 40.0543 69.0945 40.0543 68.8098 40.0554C68.8075 41.0463 68.8142 42.0372 68.8075 43.0281C68.7932 43.4695 68.7104 43.9958 68.2967 44.2419C67.8862 44.4537 67.2771 44.4107 67.0122 43.9914C66.8136 43.6758 66.7794 43.2896 66.7816 42.9255C66.7838 41.9688 66.7827 41.0121 66.7827 40.0554C66.4837 40.0543 66.1847 40.0543 65.8856 40.0554ZM70.8931 40.0554C70.8931 41.7249 70.8931 43.3933 70.8942 45.0628C71.191 45.0628 71.49 45.0628 71.7891 45.0628C71.7913 44.5784 71.788 44.0929 71.7902 43.6085C72.0285 43.3128 72.2647 43.0137 72.5052 42.718C72.9554 43.4993 73.4023 44.2816 73.8525 45.0628C74.1836 45.0628 74.5157 45.0628 74.8478 45.0606C74.2531 44.0399 73.6473 43.0259 73.0525 42.0052C73.5656 41.3564 74.0776 40.7064 74.5896 40.0565C74.2531 40.0543 73.9187 40.0554 73.5833 40.0554C72.983 40.8124 72.3927 41.5782 71.7913 42.334C71.788 41.5748 71.7902 40.8157 71.7902 40.0565C71.4911 40.0554 71.1921 40.0543 70.8931 40.0554ZM77.431 40.0554C77.431 41.7249 77.4299 43.3933 77.431 45.0617C78.3711 45.011 79.3598 45.2052 80.2591 44.8587C80.9863 44.5839 81.2986 43.6493 80.9499 42.9718C80.7844 42.6617 80.4633 42.4819 80.1356 42.3925C80.8539 42.1078 81.0602 41.0551 80.5427 40.5001C80.1996 40.1613 79.692 40.0852 79.2318 40.0598C78.6316 40.0477 78.0313 40.0587 77.431 40.0554ZM81.9684 40.0554C81.9684 40.8289 81.9684 41.6013 81.9684 42.3737C81.9629 43.0005 81.9342 43.6615 82.2222 44.2386C82.4285 44.6965 82.8721 45.0253 83.3676 45.1048C83.9656 45.2041 84.6531 45.1577 85.1276 44.7384C85.602 44.3125 85.7345 43.6416 85.7477 43.0325C85.7499 42.0405 85.7477 41.0474 85.7488 40.0554C85.4619 40.0543 85.1772 40.0554 84.8925 40.0565C84.8815 41.1224 84.9157 42.1906 84.876 43.2554C84.8727 43.8104 84.4809 44.4206 83.8652 44.3622C83.2539 44.4262 82.8798 43.8126 82.8776 43.2697C82.8478 42.1994 82.8743 41.1268 82.8655 40.0554C82.5653 40.0543 82.2674 40.0554 81.9684 40.0554ZM91.0575 40.0565C91.0586 41.7249 91.0575 43.3933 91.0586 45.0617C91.3565 45.0628 91.6556 45.0628 91.9546 45.0617C91.9557 43.3933 91.9557 41.7249 91.9557 40.0554C91.6556 40.0543 91.3565 40.0543 91.0575 40.0565ZM93.2103 40.0554C93.2103 41.7249 93.2092 43.3933 93.2103 45.0617C93.495 45.0628 93.7797 45.0628 94.0644 45.0628C94.0567 43.7608 94.1129 42.4565 93.9562 41.161C94.5731 42.5017 95.3411 43.763 96.0407 45.0606C96.3474 45.0628 96.6531 45.0628 96.9609 45.0628C96.9642 43.3944 96.9609 41.7249 96.9631 40.0565C96.6762 40.0554 96.3916 40.0543 96.1069 40.0554C96.1179 41.3553 96.055 42.6584 96.2194 43.9517C95.596 42.6143 94.8379 41.3475 94.1306 40.0554C93.8238 40.0554 93.516 40.0554 93.2103 40.0554ZM98.2167 40.0554C98.2178 41.7249 98.2167 43.3933 98.2178 45.0628C99.2473 45.0628 100.277 45.0628 101.306 45.0617C101.306 44.8057 101.306 44.5508 101.31 44.2948C100.577 44.2827 99.8453 44.2937 99.1138 44.2893C99.1138 43.8071 99.1138 43.3238 99.1138 42.8416C99.7107 42.8416 100.309 42.8416 100.906 42.8416C100.906 42.5889 100.906 42.3362 100.907 42.0835C100.309 42.0813 99.7118 42.0835 99.1138 42.0824C99.1138 41.6598 99.1127 41.2372 99.1138 40.8146C99.8222 40.8135 100.529 40.8146 101.238 40.8135C101.237 40.5608 101.237 40.3081 101.238 40.0554C100.23 40.0554 99.223 40.0543 98.2167 40.0554Z" fill="#1D3C34"/>
<path d="M78.3414 40.7527C78.7894 40.7859 79.2771 40.6788 79.6898 40.9028C80.0749 41.1434 80.0098 41.7999 79.607 41.9908C79.2098 42.1817 78.7518 42.089 78.3281 42.1089C78.3314 41.6565 78.3138 41.2041 78.3414 40.7527Z" fill="#1D3C34"/>
<path d="M27.9557 42.4951C27.9557 41.9202 27.9546 41.3464 27.9568 40.7715C28.4434 40.7903 28.9841 40.7053 29.4211 40.9702C29.8603 41.3255 29.7599 42.1762 29.2225 42.3925C28.8219 42.5602 28.3761 42.4797 27.9557 42.4951Z" fill="#1D3C34"/>
<path d="M60.204 40.7859C60.6906 40.7738 61.228 40.7749 61.6274 41.0971C62.0489 41.4226 62.1516 41.9909 62.1604 42.4929C62.1615 43.0248 62.0732 43.6295 61.6407 43.9925C61.2467 44.3357 60.695 44.3379 60.204 44.3324C60.204 43.1506 60.2029 41.9677 60.204 40.7859Z" fill="#1D3C34"/>
<path d="M78.3281 42.7875C78.8412 42.803 79.3896 42.7191 79.8707 42.942C80.3518 43.1748 80.311 43.977 79.8387 44.1977C79.372 44.4339 78.8302 44.3401 78.3281 44.3577C78.327 43.8347 78.327 43.3106 78.3281 42.7875Z" fill="#1D3C34"/>
</svg>
